# This file uses centimeters as units for non-parametric coordinates.

mtllib Mur_Test.mtl
g default
v 0.000000 -1198.465576 1196.464844
v 0.000000 1198.465576 1196.464844
v 0.000000 -1198.465576 -1196.464844
v 0.000000 1198.465576 -1196.464844
vt 0.000000 0.000000
vt 1.000000 0.000000
vt 0.000000 0.998331
vt 1.000000 0.998331
vn -1.000000 0.000000 0.000000
vn -1.000000 0.000000 0.000000
vn -1.000000 0.000000 0.000000
vn -1.000000 0.000000 0.000000
s off
g pPlane1
usemtl initialShadingGroup
f 1/1/1 2/2/2 4/4/3 3/3/4
